<svg xmlns="http://www.w3.org/2000/svg" xmlns:xlink="http://www.w3.org/1999/xlink"><symbol id="icon-cart"><path d="M18.75 16.5a2.26 2.26 0 011.594.656 2.26 2.26 0 010 3.188 2.26 2.26 0 01-3.188 0 2.26 2.26 0 01-.656-1.594c0-.242.043-.492.129-.75H10.37c.086.258.129.508.129.75a2.259 2.259 0 01-.656 1.594 2.258 2.258 0 01-3.188 0 2.259 2.259 0 01-.316-2.79c.226-.366.539-.644.937-.831L2.215 1.5H0V0h3.293l.996 3H24l-3.492 10.5H7.793l.996 3h9.961zM4.793 4.5L7.289 12h12.129l2.496-7.5H4.793zM9 18.75a.72.72 0 00-.223-.527A.72.72 0 008.25 18a.72.72 0 00-.527.223.72.72 0 00-.223.527.72.72 0 00.223.527.72.72 0 00.527.223.72.72 0 00.527-.223A.72.72 0 009 18.75zm9.75.75a.72.72 0 00.527-.223.72.72 0 00.223-.527.72.72 0 00-.223-.527.72.72 0 00-.527-.223.72.72 0 00-.527.223.72.72 0 00-.223.527.72.72 0 00.223.527.72.72 0 00.527.223z"/></symbol><symbol id="icon-minus"><path d="M10 0c.917 0 1.802.118 2.656.354.854.236 1.65.573 2.386 1.01.736.438 1.41.959 2.02 1.563a9.586 9.586 0 011.563 2.02c.43.744.767 1.543 1.01 2.397.243.854.365 1.74.365 2.656 0 .917-.118 1.802-.354 2.656a9.706 9.706 0 01-1.01 2.386c-.438.736-.959 1.41-1.563 2.02a9.595 9.595 0 01-2.02 1.563c-.744.43-1.543.767-2.397 1.01A9.656 9.656 0 0110 20a9.924 9.924 0 01-2.656-.354 9.706 9.706 0 01-2.386-1.01 10.48 10.48 0 01-2.02-1.563 9.59 9.59 0 01-1.563-2.02 10.53 10.53 0 01-1.01-2.386A9.624 9.624 0 010 10c0-.917.118-1.802.354-2.656a9.706 9.706 0 011.01-2.386 10.48 10.48 0 011.563-2.02 9.591 9.591 0 012.02-1.563c.744-.43 1.54-.767 2.386-1.01A9.624 9.624 0 0110 0zm0 18.667c.799 0 1.566-.101 2.302-.302a8.416 8.416 0 002.073-.875 8.8 8.8 0 001.75-1.355c.52-.52.972-1.104 1.354-1.75a8.412 8.412 0 00.875-2.072A9.024 9.024 0 0018.667 10c0-.799-.101-1.566-.302-2.302a8.417 8.417 0 00-.875-2.073 8.785 8.785 0 00-1.355-1.75 8.79 8.79 0 00-1.75-1.354 8.414 8.414 0 00-2.072-.875A9.023 9.023 0 0010 1.333c-.799 0-1.566.101-2.302.302a8.414 8.414 0 00-2.073.875 8.793 8.793 0 00-1.75 1.355 8.794 8.794 0 00-1.354 1.75 8.414 8.414 0 00-.875 2.072A9.022 9.022 0 001.333 10c0 .799.101 1.566.302 2.302.202.736.493 1.427.875 2.073a8.797 8.797 0 003.104 3.104 8.417 8.417 0 002.073.875 9.024 9.024 0 002.313.313zM4 9.333h12v1.334H4V9.333z"/></symbol><symbol id="icon-paypal"><path d="M31.677 4.704h-4.688a.645.645 0 00-.424.159.665.665 0 00-.22.4L24.45 17.486a.404.404 0 00.09.32.394.394 0 00.297.138h2.238a.645.645 0 00.423-.159.665.665 0 00.22-.4l.512-3.297a.665.665 0 01.22-.4.645.645 0 01.423-.16h1.484c3.088 0 4.87-1.52 5.336-4.53.21-1.317.009-2.352-.598-3.077-.666-.796-1.848-1.217-3.417-1.217zm.54 4.464c-.256 1.71-1.54 1.71-2.784 1.71h-.707l.496-3.194a.399.399 0 01.132-.24.387.387 0 01.254-.095h.324c.847 0 1.646 0 2.058.49.246.293.322.728.228 1.329zm13.473-.055h-2.245a.387.387 0 00-.254.095.4.4 0 00-.132.24l-.099.639-.157-.232c-.486-.717-1.57-.957-2.651-.957-2.481 0-4.6 1.91-5.013 4.59-.214 1.337.09 2.616.837 3.507.684.82 1.663 1.161 2.827 1.161 1.999 0 3.108-1.307 3.108-1.307l-.1.634a.405.405 0 00.088.32.393.393 0 00.297.14h2.022a.645.645 0 00.423-.158.665.665 0 00.22-.401l1.214-7.813a.401.401 0 00-.222-.422.384.384 0 00-.163-.036zm-3.129 4.442c-.217 1.304-1.235 2.18-2.533 2.18-.652 0-1.173-.213-1.507-.616-.332-.4-.458-.97-.353-1.603.203-1.293 1.238-2.197 2.516-2.197.638 0 1.156.215 1.497.621.342.411.478.984.38 1.615zm15.085-4.442h-2.255a.645.645 0 00-.54.29l-3.111 4.66-1.32-4.478a.664.664 0 00-.235-.341.646.646 0 00-.39-.131H47.58a.386.386 0 00-.319.166.402.402 0 00-.052.36l2.485 7.414-2.336 3.353a.401.401 0 00.115.57.385.385 0 00.203.057h2.254a.643.643 0 00.535-.284l7.503-11.012a.402.402 0 00-.118-.567.386.386 0 00-.203-.057z" fill="#253B80"/><path d="M65.115 4.704h-4.688a.645.645 0 00-.423.159.665.665 0 00-.22.4l-1.896 12.223a.404.404 0 00.088.32.39.39 0 00.297.138h2.406c.109 0 .213-.04.296-.111a.465.465 0 00.154-.28l.538-3.465a.665.665 0 01.22-.4.645.645 0 01.423-.16h1.483c3.089 0 4.87-1.52 5.337-4.53.21-1.317.008-2.352-.599-3.077-.665-.796-1.847-1.217-3.416-1.217zm.541 4.464c-.255 1.71-1.54 1.71-2.784 1.71h-.707l.497-3.194a.398.398 0 01.132-.24.386.386 0 01.253-.095h.325c.846 0 1.645 0 2.057.49.246.293.321.728.227 1.329zm13.472-.055h-2.243a.385.385 0 00-.254.095.397.397 0 00-.132.24l-.1.638-.157-.23c-.486-.718-1.569-.958-2.65-.958-2.481 0-4.6 1.91-5.012 4.59-.214 1.337.09 2.616.835 3.507.686.82 1.663 1.161 2.828 1.161 1.999 0 3.107-1.307 3.107-1.307l-.1.634a.401.401 0 00.223.424.386.386 0 00.164.037h2.022a.645.645 0 00.423-.16.665.665 0 00.22-.4l1.213-7.813a.405.405 0 00-.09-.32.393.393 0 00-.297-.138zm-3.13 4.442c-.214 1.304-1.234 2.18-2.532 2.18-.65 0-1.173-.213-1.507-.616-.332-.4-.457-.97-.353-1.603.204-1.293 1.238-2.197 2.516-2.197.638 0 1.156.215 1.497.621.344.411.48.984.38 1.615zm5.777-8.516L79.85 17.486a.404.404 0 00.088.32.39.39 0 00.297.138h1.934a.654.654 0 00.644-.56l1.897-12.222a.404.404 0 00-.088-.32.391.391 0 00-.297-.139H82.16a.388.388 0 00-.253.096.4.4 0 00-.132.24z" fill="#179BD7"/><path d="M4.98 20.32l.36-2.316-.8-.019H.728L3.377.9a.221.221 0 01.074-.134.214.214 0 01.142-.052h6.43c2.134 0 3.607.451 4.376 1.343.36.418.59.855.702 1.336.116.504.118 1.107.004 1.843l-.008.053v.471l.36.208c.276.142.523.334.73.566.31.358.509.812.593 1.35.087.555.058 1.214-.084 1.96-.165.86-.43 1.607-.79 2.22a4.538 4.538 0 01-1.251 1.393 5.034 5.034 0 01-1.685.773c-.621.165-1.33.247-2.106.247h-.5c-.358 0-.706.131-.978.366a1.547 1.547 0 00-.51.926l-.038.208-.633 4.081-.03.15c-.007.047-.02.071-.039.087a.106.106 0 01-.066.024H4.98z" fill="#253B80"/><path d="M15.799 5.344c-.02.124-.041.252-.066.383-.848 4.426-3.749 5.956-7.454 5.956H6.393a.921.921 0 00-.906.789L4.521 18.7l-.273 1.765a.499.499 0 00.11.395.484.484 0 00.366.172H8.07a.81.81 0 00.795-.69l.033-.172.63-4.065.04-.223a.809.809 0 01.796-.691h.5c3.242 0 5.78-1.339 6.521-5.211.31-1.618.15-2.968-.67-3.918a3.206 3.206 0 00-.916-.718z" fill="#179BD7"/><path d="M14.912 4.984a6.596 6.596 0 00-.825-.186 10.308 10.308 0 00-1.663-.123h-5.04a.796.796 0 00-.522.196.82.82 0 00-.272.495L5.518 12.27l-.03.202a.935.935 0 01.308-.565.907.907 0 01.597-.224h1.886c3.705 0 6.606-1.53 7.454-5.956.026-.131.047-.259.066-.383a4.477 4.477 0 00-.887-.36z" fill="#222D65"/><path d="M6.59 5.366a.818.818 0 01.271-.495.794.794 0 01.524-.196h5.04c.596 0 1.154.04 1.662.124.345.055.684.137 1.016.246.25.084.482.184.697.299.252-1.636-.002-2.75-.872-3.758C13.968.476 12.238 0 10.023 0h-6.43a.924.924 0 00-.908.79L.007 18.05a.571.571 0 00.125.453.555.555 0 00.42.197h3.97l.996-6.43L6.59 5.366z" fill="#253B80"/></symbol><symbol id="icon-plus"><path d="M10 0c.918 0 1.803.117 2.656.352a9.456 9.456 0 012.383 1.015c.736.443 1.41.964 2.022 1.563a9.52 9.52 0 011.572 2.021 10.072 10.072 0 011.015 7.705 9.455 9.455 0 01-1.015 2.383 10.95 10.95 0 01-1.563 2.022 9.517 9.517 0 01-2.021 1.572 10.071 10.071 0 01-7.705 1.015 9.847 9.847 0 01-2.393-1.005A10.046 10.046 0 012.93 17.08a10.113 10.113 0 01-2.568-4.414 10.14 10.14 0 01-.01-5.322A9.456 9.456 0 011.367 4.96c.443-.736.964-1.41 1.563-2.022A9.52 9.52 0 014.95 1.367 10.07 10.07 0 0110 0zm0 18.75c.807 0 1.582-.104 2.324-.313a8.986 8.986 0 002.09-.878 8.389 8.389 0 001.768-1.368 9.227 9.227 0 001.367-1.767c.384-.645.68-1.341.889-2.09A8.667 8.667 0 0018.75 10c0-.807-.104-1.582-.313-2.324a8.996 8.996 0 00-.878-2.09 8.392 8.392 0 00-1.368-1.768 9.226 9.226 0 00-1.767-1.367 8.527 8.527 0 00-2.09-.889A8.666 8.666 0 0010 1.25a8.56 8.56 0 00-2.324.313 8.988 8.988 0 00-2.09.878A8.39 8.39 0 003.818 3.81a9.23 9.23 0 00-1.367 1.767 8.526 8.526 0 00-.889 2.09A8.666 8.666 0 001.25 10c0 .807.104 1.582.313 2.324a8.99 8.99 0 00.878 2.09 8.734 8.734 0 003.135 3.144A8.757 8.757 0 0010 18.75zm.625-9.385H15v1.25h-4.375V15h-1.25v-4.385H5v-1.25h4.375V5h1.25v4.365z"/></symbol><symbol id="icon-search"><path d="M15.75 0a8.15 8.15 0 014.16 1.125c.61.36 1.164.79 1.664 1.29s.934 1.058 1.301 1.675c.367.617.645 1.273.832 1.969.188.695.285 1.425.293 2.191a8.15 8.15 0 01-1.125 4.16c-.36.61-.79 1.164-1.29 1.664s-1.058.934-1.675 1.301a7.809 7.809 0 01-1.969.832 8.726 8.726 0 01-2.191.293c-.977 0-1.91-.164-2.8-.492a8.606 8.606 0 01-2.473-1.418l-9.2 9.187A.72.72 0 01.75 24a.72.72 0 01-.527-.223A.72.72 0 010 23.25a.72.72 0 01.223-.527l9.187-9.2a8.445 8.445 0 01-1.418-2.46A8.07 8.07 0 017.5 8.25a8.15 8.15 0 011.125-4.16c.36-.61.79-1.164 1.29-1.664s1.058-.934 1.675-1.301a7.81 7.81 0 011.969-.832A8.727 8.727 0 0115.75 0zm0 15a6.676 6.676 0 004.77-1.98 6.95 6.95 0 001.44-2.145 6.68 6.68 0 00.54-2.625 6.677 6.677 0 00-1.98-4.77 6.952 6.952 0 00-2.145-1.44 6.681 6.681 0 00-2.625-.54 6.676 6.676 0 00-4.77 1.98 6.952 6.952 0 00-1.44 2.145A6.681 6.681 0 009 8.25a6.676 6.676 0 001.98 4.77 6.95 6.95 0 002.145 1.44 6.68 6.68 0 002.625.54z"/></symbol></svg>