<svg width="20" height="20" viewBox="0 0 20 20" xmlns="http://www.w3.org/2000/svg">
<path d="M10 0C10.9166 0 11.802 0.118056 12.6562 0.354167C13.5104 0.590278 14.3055 0.927083 15.0417 1.36458C15.7778 1.80208 16.4514 2.32292 17.0625 2.92708C17.6736 3.53125 18.1945 4.20486 18.6249 4.94792C19.0555 5.69097 19.3923 6.48958 19.6354 7.34375C19.8785 8.19792 20 9.08333 20 10C20 10.9167 19.8819 11.8021 19.6458 12.6562C19.4097 13.5104 19.0729 14.3056 18.6354 15.0417C18.1979 15.7778 17.6771 16.4514 17.0729 17.0625C16.4687 17.6736 15.7951 18.1944 15.0521 18.625C14.309 19.0556 13.5104 19.3924 12.6562 19.6354C11.802 19.8785 10.9166 20 10 20C9.08332 20 8.19791 19.8819 7.34374 19.6458C6.48957 19.4097 5.69444 19.0729 4.95833 18.6354C4.22222 18.1979 3.54861 17.6771 2.9375 17.0729C2.32638 16.4688 1.80555 15.7951 1.375 15.0521C0.944447 14.309 0.60764 13.5139 0.364579 12.6667C0.121528 11.8194 0 10.9306 0 10C0 9.08333 0.118054 8.19792 0.354169 7.34375C0.590274 6.48958 0.927081 5.69444 1.36458 4.95833C1.80208 4.22222 2.32291 3.54861 2.92708 2.9375C3.53125 2.32639 4.20485 1.80556 4.94791 1.375C5.69097 0.944444 6.4861 0.607639 7.33332 0.364583C8.18054 0.121528 9.06943 0 10 0ZM10 18.6667C10.7986 18.6667 11.5659 18.566 12.3021 18.3646C13.0382 18.1632 13.7292 17.8715 14.375 17.4896C15.0208 17.1076 15.6041 16.6562 16.125 16.1354C16.6458 15.6146 17.0972 15.0312 17.4791 14.3854C17.8611 13.7396 18.1527 13.0486 18.3541 12.3125C18.5555 11.5764 18.6597 10.8056 18.6667 10C18.6667 9.20139 18.566 8.43403 18.3646 7.69792C18.1631 6.96181 17.8715 6.27083 17.4895 5.625C17.1077 4.97917 16.6563 4.39583 16.1354 3.875C15.6146 3.35417 15.0313 2.90278 14.3854 2.52083C13.7396 2.13889 13.0486 1.84722 12.3125 1.64583C11.5763 1.44444 10.8055 1.34028 10 1.33333C9.20137 1.33333 8.43402 1.43403 7.6979 1.63542C6.96179 1.83681 6.27082 2.12847 5.625 2.51042C4.97916 2.89236 4.39583 3.34375 3.87499 3.86458C3.35416 4.38542 2.90278 4.96875 2.52083 5.61458C2.13888 6.26042 1.84722 6.95139 1.64584 7.6875C1.44444 8.42361 1.34028 9.19444 1.33333 10C1.33333 10.7986 1.43402 11.566 1.63542 12.3021C1.8368 13.0382 2.12847 13.7292 2.51041 14.375C2.89236 15.0208 3.34375 15.6042 3.86457 16.125C4.38541 16.6458 4.96875 17.0972 5.61458 17.4792C6.26041 17.8611 6.95138 18.1528 7.68749 18.3542C8.4236 18.5556 9.19447 18.6597 10 18.6667ZM4 9.33333H16V10.6667H4V9.33333Z" />
</svg>
