<svg width="20" height="20" viewBox="0 0 20 20" xmlns="http://www.w3.org/2000/svg">
<path d="M10 0C10.9179 0 11.8033 0.117188 12.6562 0.351562C13.5091 0.585938 14.3033 0.924479 15.039 1.36719C15.7748 1.8099 16.4486 2.33073 17.0605 2.92969C17.6725 3.52865 18.1966 4.20247 18.6328 4.95117C19.069 5.69987 19.4043 6.4974 19.6387 7.34375C19.873 8.1901 19.9935 9.07552 20 10C20 10.918 19.8828 11.8034 19.6484 12.6562C19.4141 13.5091 19.0755 14.3034 18.6328 15.0391C18.1901 15.7747 17.6693 16.4486 17.0702 17.0605C16.4713 17.6725 15.7975 18.1966 15.0488 18.6328C14.3001 19.069 13.5026 19.4043 12.6562 19.6387C11.8099 19.873 10.9244 19.9935 10 20C9.08201 20 8.1966 19.8828 7.34373 19.6484C6.49088 19.4141 5.69335 19.0788 4.95117 18.6426C4.20897 18.2064 3.53515 17.6855 2.92968 17.0801C2.32422 16.4746 1.80339 15.7975 1.36719 15.0488C0.930992 14.3001 0.595698 13.5059 0.361325 12.666C0.126953 11.8262 0.00651092 10.9375 0 10C0 9.08203 0.117188 8.19661 0.351566 7.34375C0.585939 6.49089 0.924476 5.69661 1.36719 4.96094C1.80989 4.22526 2.33072 3.55143 2.92968 2.93945C3.52864 2.32747 4.20247 1.80339 4.95117 1.36719C5.69986 0.93099 6.49738 0.595703 7.34373 0.361328C8.19009 0.126953 9.07551 0.00651042 10 0ZM10 18.75C10.8072 18.75 11.582 18.6458 12.3242 18.4375C13.0664 18.2292 13.763 17.9362 14.414 17.5586C15.0651 17.181 15.6542 16.7253 16.1816 16.1914C16.7089 15.6576 17.1647 15.0684 17.5488 14.4238C17.9329 13.7793 18.2291 13.0827 18.4375 12.334C18.6458 11.5853 18.75 10.8073 18.75 10C18.75 9.19271 18.6458 8.41797 18.4375 7.67578C18.2291 6.93359 17.9361 6.23698 17.5586 5.58594C17.1809 4.9349 16.7252 4.3457 16.1913 3.81836C15.6576 3.29102 15.0683 2.83529 14.4238 2.45117C13.7792 2.06706 13.0826 1.77083 12.3339 1.5625C11.5852 1.35417 10.8072 1.25 10 1.25C9.19267 1.25 8.41795 1.35417 7.67577 1.5625C6.93358 1.77083 6.23697 2.0638 5.58593 2.44141C4.93488 2.81901 4.3457 3.27474 3.81836 3.80859C3.29101 4.34245 2.83528 4.93164 2.45116 5.57617C2.06706 6.2207 1.77083 6.91732 1.5625 7.66602C1.35417 8.41471 1.25 9.19271 1.25 10C1.25 10.8073 1.35417 11.582 1.5625 12.3242C1.77083 13.0664 2.0638 13.763 2.44141 14.4141C2.81901 15.0651 3.27473 15.6576 3.80859 16.1914C4.34244 16.7253 4.93163 17.181 5.57617 17.5586C6.22069 17.9362 6.91731 18.2292 7.66601 18.4375C8.4147 18.6458 9.19267 18.75 10 18.75ZM10.625 9.36523H15V10.6152H10.625V15H9.37494V10.6152H4.99999V9.36523H9.37494V5H10.625V9.36523Z" />
</svg>
